<?xml version="1.0" standalone="no"?>
<!DOCTYPE svg PUBLIC "-//W3C//DTD SVG 20010904//EN"
 "http://www.w3.org/TR/2001/REC-SVG-20010904/DTD/svg10.dtd">
<svg version="1.0" xmlns="http://www.w3.org/2000/svg"
 width="512.000000pt" height="512.000000pt" viewBox="0 0 512.000000 512.000000"
 preserveAspectRatio="xMidYMid meet">

<g transform="translate(0.000000,512.000000) scale(0.100000,-0.100000)"
fill="#000000" stroke="none">
<path d="M847 5109 c-97 -23 -190 -101 -235 -197 l-27 -57 -3 -2255 c-2 -2036
-1 -2260 14 -2310 32 -112 109 -200 223 -254 l66 -31 1757 0 1756 0 44 30 c25
18 52 49 66 75 l22 44 0 659 0 659 -29 29 c-49 48 -126 35 -156 -26 -12 -28
-15 -84 -15 -349 l0 -316 -1435 0 -1435 0 0 2055 0 2055 1435 0 1435 0 2
-1316 3 -1316 34 -30 c29 -26 39 -30 75 -25 27 4 49 15 63 32 l23 26 0 1335
c0 1182 -2 1339 -15 1372 -21 49 -52 81 -100 103 -38 18 -109 19 -1785 18
-977 -1 -1762 -5 -1783 -10z m411 -2246 l2 -2051 -182 -4 c-159 -4 -190 -7
-238 -26 -30 -12 -56 -22 -57 -22 -2 0 -3 909 -3 2020 0 2184 -3 2046 52 2097
40 38 67 42 248 40 l175 -2 3 -2052z m3072 -2458 l0 -205 -1709 2 -1709 3 -43
30 c-23 17 -53 50 -67 75 -20 38 -23 55 -19 108 7 93 57 156 145 182 15 5 786
9 1715 9 l1687 1 0 -205z"/>
<path d="M2761 4404 c-116 -31 -233 -106 -292 -188 -30 -43 -36 -46 -63 -40
-62 14 -173 7 -240 -16 -257 -85 -382 -378 -267 -625 33 -72 107 -156 167
-191 l43 -25 3 -303 3 -303 30 -48 c20 -32 45 -56 74 -72 l45 -23 642 2 642 3
38 31 c82 66 79 48 82 395 l3 309 59 40 c58 39 108 93 147 160 65 108 71 284
15 403 -17 37 -48 88 -68 112 -92 112 -265 178 -408 155 l-58 -9 -70 74 c-56
60 -87 83 -151 115 -124 61 -257 76 -376 44z m280 -218 c64 -30 127 -92 159
-158 45 -88 82 -103 168 -69 62 24 157 28 206 7 92 -38 156 -138 156 -241 -1
-109 -53 -183 -169 -239 -81 -38 -90 -57 -90 -208 l-1 -108 -580 0 -580 0 0
124 c0 143 -8 161 -87 196 -73 32 -109 65 -139 126 -50 103 -30 217 52 296 77
73 171 89 287 47 63 -22 67 -23 101 -7 24 12 42 32 61 70 44 89 119 155 208
184 66 22 181 13 248 -20z m429 -1316 l0 -100 -580 0 -580 0 0 100 0 100 580
0 580 0 0 -100z"/>
<path d="M2395 2230 c-67 -21 -89 -113 -39 -164 l27 -26 509 0 510 0 29 29
c40 40 40 89 0 133 l-29 33 -489 2 c-269 1 -501 -2 -518 -7z"/>
<path d="M4391 1966 c-59 -33 -67 -102 -17 -152 50 -50 121 -42 152 17 46 91
-47 184 -135 135z"/>
<path d="M2153 1815 c-12 -8 -27 -31 -33 -50 -16 -50 11 -105 60 -122 26 -9
214 -12 706 -12 369 -1 685 2 703 5 78 16 110 113 55 168 l-27 26 -721 0
c-626 0 -724 -2 -743 -15z"/>
</g>
</svg>
