<?xml version="1.0" standalone="no"?>
<!DOCTYPE svg PUBLIC "-//W3C//DTD SVG 20010904//EN"
 "http://www.w3.org/TR/2001/REC-SVG-20010904/DTD/svg10.dtd">
<svg version="1.0" xmlns="http://www.w3.org/2000/svg"
 width="512.000000pt" height="512.000000pt" viewBox="0 0 512.000000 512.000000"
 preserveAspectRatio="xMidYMid meet">

<g transform="translate(0.000000,512.000000) scale(0.100000,-0.100000)"
fill="#000000" stroke="none">
<path d="M706 5029 c-62 -15 -153 -68 -197 -116 -22 -24 -55 -74 -72 -111 -30
-63 -32 -75 -35 -209 -4 -141 -4 -142 21 -167 l26 -26 271 0 271 0 24 25 c33
32 33 78 0 110 -24 25 -24 25 -240 25 l-215 0 0 56 c0 31 5 75 12 98 16 55 99
138 154 154 53 15 255 16 306 0 49 -15 120 -76 144 -125 18 -37 19 -111 24
-2199 l5 -2160 37 -76 c45 -91 103 -147 196 -191 l67 -32 1456 0 1455 0 76 37
c91 45 147 103 191 196 30 63 32 75 35 209 4 141 4 142 -21 167 -26 26 -27 26
-201 26 l-176 0 -2 2008 -3 2007 -32 67 c-44 93 -100 151 -191 196 l-76 37
-1635 2 c-966 0 -1652 -3 -1675 -8z m3288 -161 c55 -16 138 -99 154 -154 9
-32 12 -495 12 -2018 l0 -1976 -575 0 -576 0 -24 -25 c-16 -15 -25 -36 -25
-55 0 -19 9 -40 25 -55 l24 -25 776 0 775 0 0 -56 c0 -31 -5 -75 -12 -98 -16
-55 -99 -138 -154 -154 -31 -9 -297 -12 -1096 -12 l-1054 0 34 69 c29 59 35
83 40 160 l5 91 214 0 c214 0 214 0 238 25 33 32 33 78 0 110 l-24 25 -271 0
-271 0 -24 -25 c-24 -23 -25 -31 -25 -136 0 -61 -5 -130 -12 -153 -16 -55 -99
-138 -154 -154 -55 -16 -412 -16 -466 0 -49 15 -120 76 -144 125 -18 37 -19
111 -24 2199 l-5 2160 -36 72 -35 72 1334 0 c1019 0 1344 -3 1376 -12z"/>
<path d="M2345 4535 c-16 -15 -25 -36 -25 -55 0 -19 9 -40 25 -55 l24 -25 349
0 c336 0 349 1 370 20 40 38 37 93 -7 127 -12 9 -106 12 -364 13 l-348 0 -24
-25z"/>
<path d="M2185 4215 c-16 -15 -25 -36 -25 -55 0 -19 9 -40 25 -55 l24 -25 509
0 c497 0 509 0 530 20 40 38 37 93 -7 127 -12 9 -140 12 -524 13 l-508 0 -24
-25z"/>
<path d="M3715 3981 c-64 -30 -91 -67 -133 -186 l-40 -110 -678 -5 c-646 -5
-681 -6 -718 -24 -84 -42 -137 -121 -144 -217 -4 -50 3 -73 67 -240 40 -101
83 -201 96 -221 14 -20 46 -50 72 -65 l48 -28 264 -3 c287 -3 301 -1 321 49
14 33 6 62 -23 89 -19 19 -36 20 -267 20 -202 0 -249 3 -267 15 -25 17 -153
335 -153 379 0 17 11 38 29 57 l29 29 631 0 c347 0 631 -1 631 -2 -1 -22 -174
-439 -189 -455 -17 -21 -29 -23 -111 -23 -83 0 -93 -2 -115 -25 -33 -32 -33
-78 0 -110 20 -21 34 -25 80 -25 l55 0 0 -40 0 -40 -455 0 -456 0 -24 -25
c-33 -32 -33 -78 0 -110 20 -21 34 -25 80 -25 l55 0 0 -55 c0 -46 4 -60 25
-80 14 -15 35 -25 52 -25 53 1 83 42 83 114 l0 46 200 0 200 0 0 -55 c0 -46 4
-60 25 -80 59 -60 135 -11 135 88 l0 45 68 4 c117 6 171 69 172 199 0 64 1 66
46 115 42 44 57 74 152 319 58 149 128 335 156 415 l51 145 98 5 c89 4 101 7
118 29 26 32 24 77 -6 106 -22 23 -31 25 -122 25 -74 0 -108 -5 -138 -19z"/>
<path d="M1705 2295 c-16 -15 -25 -36 -25 -55 0 -19 9 -40 25 -55 l24 -25 751
0 751 0 24 25 c33 32 33 78 0 110 l-24 25 -751 0 -751 0 -24 -25z"/>
<path d="M3545 2295 c-16 -15 -25 -36 -25 -55 0 -19 9 -40 25 -55 24 -25 26
-25 215 -25 189 0 191 0 215 25 16 15 25 36 25 55 0 19 -9 40 -25 55 -24 25
-26 25 -215 25 -189 0 -191 0 -215 -25z"/>
<path d="M1545 1975 c-16 -15 -25 -36 -25 -55 0 -19 9 -40 25 -55 l24 -25 831
0 831 0 24 25 c16 15 25 36 25 55 0 19 -9 40 -25 55 l-24 25 -831 0 -831 0
-24 -25z"/>
<path d="M1705 1655 c-16 -15 -25 -36 -25 -55 0 -19 9 -40 25 -55 l24 -25 751
0 751 0 24 25 c33 32 33 78 0 110 l-24 25 -751 0 -751 0 -24 -25z"/>
<path d="M3545 1655 c-16 -15 -25 -36 -25 -55 0 -19 9 -40 25 -55 24 -25 26
-25 215 -25 189 0 191 0 215 25 16 15 25 36 25 55 0 19 -9 40 -25 55 -24 25
-26 25 -215 25 -189 0 -191 0 -215 -25z"/>
<path d="M1545 1335 c-16 -15 -25 -36 -25 -55 0 -19 9 -40 25 -55 l24 -25 831
0 831 0 24 25 c16 15 25 36 25 55 0 19 -9 40 -25 55 l-24 25 -831 0 -831 0
-24 -25z"/>
<path d="M1705 1015 c-16 -15 -25 -36 -25 -55 0 -19 9 -40 25 -55 l24 -25 751
0 751 0 24 25 c33 32 33 78 0 110 l-24 25 -751 0 -751 0 -24 -25z"/>
<path d="M3545 1015 c-16 -15 -25 -36 -25 -55 0 -19 9 -40 25 -55 24 -25 26
-25 215 -25 189 0 191 0 215 25 16 15 25 36 25 55 0 19 -9 40 -25 55 -24 25
-26 25 -215 25 -189 0 -191 0 -215 -25z"/>
</g>
</svg>
