<?xml version="1.0" standalone="no"?>
<!DOCTYPE svg PUBLIC "-//W3C//DTD SVG 20010904//EN"
 "http://www.w3.org/TR/2001/REC-SVG-20010904/DTD/svg10.dtd">
<svg version="1.0" xmlns="http://www.w3.org/2000/svg"
 width="512.000000pt" height="512.000000pt" viewBox="0 0 512.000000 512.000000"
 preserveAspectRatio="xMidYMid meet">

<g transform="translate(0.000000,512.000000) scale(0.100000,-0.100000)"
fill="#000000" stroke="none">
<path d="M1475 4835 c-601 -106 -1054 -545 -1182 -1145 -26 -121 -25 -440 1
-560 129 -593 582 -1031 1176 -1136 115 -21 344 -23 448 -5 40 7 76 11 79 8 3
-3 -1 -39 -8 -79 -18 -104 -16 -332 6 -453 90 -517 448 -941 939 -1114 179
-63 251 -75 471 -75 157 -1 218 3 285 17 606 129 1047 589 1146 1197 21 128
14 399 -15 520 -90 390 -322 716 -653 922 -155 96 -327 161 -513 194 -120 21
-347 23 -453 5 -40 -7 -76 -11 -79 -8 -3 3 1 39 8 79 18 104 16 333 -5 448
-104 587 -531 1036 -1115 1171 -115 27 -419 35 -536 14z m495 -333 c259 -69
471 -208 622 -407 159 -209 231 -424 231 -685 0 -137 -9 -200 -50 -333 l-27
-88 -115 -76 c-161 -105 -322 -266 -424 -424 l-75 -115 -89 -27 c-48 -15 -115
-32 -148 -39 -90 -17 -295 -14 -398 6 -457 89 -814 452 -893 909 -23 134 -15
340 19 470 109 413 438 725 862 817 121 27 372 22 485 -8z m1663 -1698 c445
-85 804 -453 883 -907 23 -134 15 -340 -19 -470 -30 -113 -104 -273 -170 -366
-62 -88 -186 -211 -273 -271 -102 -70 -242 -135 -359 -167 -91 -24 -117 -27
-280 -27 -197 0 -257 10 -421 73 -315 121 -578 421 -664 754 -68 269 -40 531
85 782 64 130 127 216 228 312 92 88 171 141 290 198 220 106 454 136 700 89z"/>
<path d="M1273 3949 c-44 -13 -90 -62 -104 -112 -21 -77 -4 -105 162 -272
l148 -150 -148 -150 c-123 -124 -151 -157 -160 -192 -32 -117 66 -221 186
-198 32 6 64 32 188 156 83 82 155 149 160 149 5 0 77 -67 160 -149 161 -160
180 -172 262 -156 49 9 109 69 118 118 16 82 4 101 -156 262 -82 83 -149 155
-149 160 0 5 67 77 149 160 124 124 150 156 156 188 23 120 -81 218 -197 186
-36 -9 -69 -37 -193 -160 l-151 -149 -139 141 c-169 171 -207 192 -292 168z"/>
<path d="M3925 2236 c-16 -8 -181 -165 -365 -350 l-335 -336 -145 144 c-80 79
-156 149 -169 156 -13 7 -45 13 -71 13 -119 2 -196 -119 -145 -227 9 -18 111
-128 228 -243 179 -179 219 -213 255 -222 92 -25 86 -30 530 412 234 233 412
419 424 441 50 98 -17 214 -129 223 -28 2 -60 -2 -78 -11z"/>
</g>
</svg>
